<svg xmlns="http://www.w3.org/2000/svg" version="1.1" xmlns:xlink="http://www.w3.org/1999/xlink" xmlns:svgjs="http://svgjs.dev/svgjs" width="1000" height="217" viewBox="0 0 1000 217"><g transform="matrix(1,0,0,1,-0.6060606060606233,-0.4926767236642462)"><svg viewBox="0 0 396 86" data-background-color="#ffffff" preserveAspectRatio="xMidYMid meet" height="217" width="1000" xmlns="http://www.w3.org/2000/svg" xmlns:xlink="http://www.w3.org/1999/xlink"><g id="tight-bounds" transform="matrix(1,0,0,1,0.2400000000000091,0.19525436974711852)"><svg viewBox="0 0 395.52 85.60949126050576" height="85.60949126050576" width="395.52"><g><svg viewBox="0 0 498.63854285279456 107.92928796649386" height="85.60949126050576" width="395.52"><g transform="matrix(1,0,0,1,103.11854285279466,14.916421129956824)"><svg viewBox="0 0 395.5199999999999 78.09644570658021" height="78.09644570658021" width="395.5199999999999"><g id="textblocktransform"><svg viewBox="0 0 395.5199999999999 78.09644570658021" height="78.09644570658021" width="395.5199999999999" id="textblock"><g><svg viewBox="0 0 395.5199999999999 42.12149108589951" height="42.12149108589951" width="395.5199999999999"><g transform="matrix(1,0,0,1,0,0)"><svg width="395.5199999999999" viewBox="2.49 -38.01 361.49 38.5" height="42.12149108589951" data-palette-color="#ff851b"><path d="M24.58-11.57L30.74-11.57Q30.2-5.88 26.54-2.7 22.88 0.49 16.8 0.49L16.8 0.49Q12.55 0.49 9.31-1.53 6.08-3.54 4.32-7.25 2.56-10.96 2.49-15.87L2.49-15.87 2.49-19.19Q2.49-24.22 4.27-28.05 6.05-31.88 9.39-33.96 12.72-36.04 17.09-36.04L17.09-36.04Q22.97-36.04 26.56-32.84 30.15-29.64 30.74-23.8L30.74-23.8 24.58-23.8Q24.15-27.64 22.35-29.33 20.56-31.03 17.09-31.03L17.09-31.03Q13.06-31.03 10.9-28.09 8.74-25.15 8.69-19.46L8.69-19.46 8.69-16.31Q8.69-10.55 10.75-7.52 12.82-4.49 16.8-4.49L16.8-4.49Q20.43-4.49 22.27-6.13 24.1-7.76 24.58-11.57L24.58-11.57ZM41.99-37.5L41.99 0 36.06 0 36.06-37.5 41.99-37.5ZM54.76-26.42L54.76 0 48.82 0 48.82-26.42 54.76-26.42ZM48.46-33.28L48.46-33.28Q48.46-34.64 49.32-35.55 50.19-36.45 51.8-36.45 53.41-36.45 54.29-35.55 55.17-34.64 55.17-33.28L55.17-33.28Q55.17-31.93 54.29-31.04 53.41-30.15 51.8-30.15 50.19-30.15 49.32-31.04 48.46-31.93 48.46-33.28ZM61.13-26.42L66.72-26.42 66.89-23.36Q69.82-26.9 74.58-26.9L74.58-26.9Q82.83-26.9 82.98-17.46L82.98-17.46 82.98 0 77.04 0 77.04-17.11Q77.04-19.63 75.96-20.84 74.87-22.05 72.4-22.05L72.4-22.05Q68.82-22.05 67.06-18.8L67.06-18.8 67.06 0 61.13 0 61.13-26.42ZM95.33-26.42L95.33 0 89.39 0 89.39-26.42 95.33-26.42ZM89.03-33.28L89.03-33.28Q89.03-34.64 89.89-35.55 90.76-36.45 92.37-36.45 93.98-36.45 94.86-35.55 95.74-34.64 95.74-33.28L95.74-33.28Q95.74-31.93 94.86-31.04 93.98-30.15 92.37-30.15 90.76-30.15 89.89-31.04 89.03-31.93 89.03-33.28ZM112.63-4.25L112.63-4.25Q114.86-4.25 116.32-5.54 117.79-6.84 117.88-8.74L117.88-8.74 123.47-8.74Q123.38-6.27 121.94-4.14 120.5-2 118.03-0.76 115.56 0.49 112.71 0.49L112.71 0.49Q107.17 0.49 103.92-3.1 100.67-6.69 100.67-13.01L100.67-13.01 100.67-13.62Q100.67-19.65 103.89-23.28 107.12-26.9 112.68-26.9L112.68-26.9Q117.39-26.9 120.36-24.16 123.33-21.41 123.47-16.94L123.47-16.94 117.88-16.94Q117.79-19.21 116.33-20.68 114.88-22.14 112.63-22.14L112.63-22.14Q109.75-22.14 108.19-20.06 106.63-17.97 106.6-13.72L106.6-13.72 106.6-12.77Q106.6-8.47 108.15-6.36 109.7-4.25 112.63-4.25ZM149.79 0L143.74 0Q143.34-0.76 143.05-2.47L143.05-2.47Q140.22 0.49 136.12 0.49L136.12 0.49Q132.14 0.49 129.62-1.78 127.11-4.05 127.11-7.4L127.11-7.4Q127.11-11.62 130.25-13.88 133.38-16.14 139.22-16.14L139.22-16.14 142.86-16.14 142.86-17.87Q142.86-19.92 141.71-21.15 140.56-22.39 138.22-22.39L138.22-22.39Q136.19-22.39 134.9-21.37 133.6-20.36 133.6-18.8L133.6-18.8 127.67-18.8Q127.67-20.97 129.11-22.86 130.55-24.76 133.03-25.83 135.51-26.9 138.56-26.9L138.56-26.9Q143.2-26.9 145.96-24.57 148.72-22.24 148.79-18.02L148.79-18.02 148.79-6.1Q148.79-2.54 149.79-0.42L149.79-0.42 149.79 0ZM137.22-4.27L137.22-4.27Q138.97-4.27 140.52-5.13 142.07-5.98 142.86-7.42L142.86-7.42 142.86-12.4 139.66-12.4Q136.36-12.4 134.7-11.25 133.04-10.11 133.04-8.01L133.04-8.01Q133.04-6.3 134.18-5.29 135.31-4.27 137.22-4.27ZM186.6-9.16L186.6-9.16Q186.6-11.5 184.95-12.77 183.31-14.04 179.01-15.33 174.71-16.63 172.17-18.21L172.17-18.21Q167.31-21.26 167.31-26.17L167.31-26.17Q167.31-30.47 170.82-33.25 174.32-36.04 179.91-36.04L179.91-36.04Q183.62-36.04 186.53-34.67 189.43-33.3 191.09-30.77 192.75-28.25 192.75-25.17L192.75-25.17 186.6-25.17Q186.6-27.95 184.86-29.53 183.11-31.1 179.86-31.1L179.86-31.1Q176.84-31.1 175.16-29.81 173.49-28.52 173.49-26.2L173.49-26.2Q173.49-24.24 175.3-22.94 177.1-21.63 181.25-20.4 185.4-19.17 187.92-17.59 190.43-16.02 191.61-13.98 192.78-11.94 192.78-9.2L192.78-9.2Q192.78-4.76 189.37-2.14 185.97 0.49 180.13 0.49L180.13 0.49Q176.27 0.49 173.04-0.94 169.8-2.37 168.01-4.88 166.22-7.4 166.22-10.74L166.22-10.74 172.39-10.74Q172.39-7.71 174.39-6.05 176.4-4.39 180.13-4.39L180.13-4.39Q183.35-4.39 184.98-5.7 186.6-7.01 186.6-9.16ZM196.51-13.16L196.51-13.45Q196.51-17.33 198.05-20.45 199.59-23.56 202.37-25.23 205.15-26.9 208.77-26.9L208.77-26.9Q214.11-26.9 217.45-23.46 220.78-20.02 221.05-14.33L221.05-14.33 221.07-12.94Q221.07-9.03 219.57-5.96 218.07-2.88 215.27-1.2 212.48 0.49 208.82 0.49L208.82 0.49Q203.22 0.49 199.87-3.23 196.51-6.96 196.51-13.16L196.51-13.16ZM202.44-12.94L202.44-12.94Q202.44-8.86 204.13-6.56 205.81-4.25 208.82-4.25 211.82-4.25 213.49-6.59 215.16-8.94 215.16-13.45L215.16-13.45Q215.16-17.46 213.44-19.8 211.72-22.14 208.77-22.14L208.77-22.14Q205.86-22.14 204.15-19.84 202.44-17.53 202.44-12.94ZM234.11 0L228.17 0 228.17-22.02 224.14-22.02 224.14-26.42 228.17-26.42 228.17-28.83Q228.17-33.23 230.61-35.62 233.06-38.01 237.45-38.01L237.45-38.01Q239.01-38.01 240.77-37.57L240.77-37.57 240.62-32.93Q239.65-33.13 238.35-33.13L238.35-33.13Q234.11-33.13 234.11-28.76L234.11-28.76 234.11-26.42 239.48-26.42 239.48-22.02 234.11-22.02 234.11 0ZM245.31-32.84L251.24-32.84 251.24-26.42 255.91-26.42 255.91-22.02 251.24-22.02 251.24-7.28Q251.24-5.76 251.84-5.09 252.44-4.42 253.98-4.42L253.98-4.42Q255-4.42 256.05-4.66L256.05-4.66 256.05-0.07Q254.03 0.49 252.15 0.49L252.15 0.49Q245.31 0.49 245.31-7.06L245.31-7.06 245.31-22.02 240.96-22.02 240.96-26.42 245.31-26.42 245.31-32.84ZM278.14-26.42L283.64-8.18 287.84-26.42 293.62-26.42 286.42 0 281.54 0 275.87-18.14 270.31 0 265.42 0 258.2-26.42 263.98-26.42 268.26-8.37 273.68-26.42 278.14-26.42ZM319.43 0L313.37 0Q312.98-0.76 312.69-2.47L312.69-2.47Q309.86 0.49 305.75 0.49L305.75 0.49Q301.77 0.49 299.26-1.78 296.74-4.05 296.74-7.4L296.74-7.4Q296.74-11.62 299.88-13.88 303.02-16.14 308.85-16.14L308.85-16.14 312.49-16.14 312.49-17.87Q312.49-19.92 311.34-21.15 310.2-22.39 307.85-22.39L307.85-22.39Q305.83-22.39 304.53-21.37 303.24-20.36 303.24-18.8L303.24-18.8 297.31-18.8Q297.31-20.97 298.75-22.86 300.19-24.76 302.67-25.83 305.14-26.9 308.2-26.9L308.2-26.9Q312.83-26.9 315.59-24.57 318.35-22.24 318.42-18.02L318.42-18.02 318.42-6.1Q318.42-2.54 319.43-0.42L319.43-0.42 319.43 0ZM306.85-4.27L306.85-4.27Q308.61-4.27 310.16-5.13 311.71-5.98 312.49-7.42L312.49-7.42 312.49-12.4 309.29-12.4Q306-12.4 304.34-11.25 302.68-10.11 302.68-8.01L302.68-8.01Q302.68-6.3 303.81-5.29 304.95-4.27 306.85-4.27ZM338.49-26.56L338.47-21Q337.29-21.19 336.05-21.19L336.05-21.19Q331.97-21.19 330.56-18.07L330.56-18.07 330.56 0 324.62 0 324.62-26.42 330.29-26.42 330.43-23.46Q332.58-26.9 336.39-26.9L336.39-26.9Q337.66-26.9 338.49-26.56L338.49-26.56ZM353.38 0.49L353.38 0.49Q347.74 0.49 344.24-3.06 340.73-6.62 340.73-12.52L340.73-12.52 340.73-13.26Q340.73-17.21 342.26-20.32 343.79-23.44 346.54-25.17 349.3-26.9 352.7-26.9L352.7-26.9Q358.09-26.9 361.03-23.46 363.98-20.02 363.98-13.72L363.98-13.72 363.98-11.33 346.72-11.33Q346.98-8.06 348.9-6.15 350.82-4.25 353.72-4.25L353.72-4.25Q357.8-4.25 360.36-7.54L360.36-7.54 363.56-4.49Q361.97-2.12 359.33-0.82 356.68 0.49 353.38 0.49ZM352.67-22.14L352.67-22.14Q350.23-22.14 348.73-20.43 347.23-18.73 346.81-15.67L346.81-15.67 358.12-15.67 358.12-16.11Q357.92-19.09 356.53-20.62 355.14-22.14 352.67-22.14Z" opacity="1" transform="matrix(1,0,0,1,0,0)" fill="#ff851b" class="wordmark-text-0" data-fill-palette-color="primary" id="text-0"></path></svg></g></svg></g><g transform="matrix(1,0,0,1,0,52.06536421549432)"><svg viewBox="0 0 197.6237207078358 26.031081491085896" height="26.031081491085896" width="197.6237207078358"><g transform="matrix(1,0,0,1,0,0)"><svg width="197.6237207078358" viewBox="2.2 -35.5 334.76 44.1" height="26.031081491085896" data-palette-color="#ff851b"><path d="M19.25-3.9L19.25-3.9 20-0.95Q16 0.25 12.95 0.25L12.95 0.25Q7.6 0.25 4.9-3.25 2.2-6.75 2.2-12.9 2.2-19.05 5-22.28 7.8-25.5 13.25-25.5L13.25-25.5Q15.6-25.5 19.85-24.3L19.85-24.3 18.35-21.4Q15.6-22.2 13.4-22.2L13.4-22.2Q9.6-22.2 7.93-19.95 6.25-17.7 6.25-12.85L6.25-12.85Q6.25-3 13.3-3L13.3-3Q16.1-3 19.25-3.9ZM29.95 0L26.2 0 26.2-35 29.95-35 29.95 0ZM42.1 0L38.35 0 38.35-25 42.1-25 42.1 0ZM38.35-35L42.1-35 42.1-30.55 38.35-30.55 38.35-35ZM54.19-19.85L54.19-19.85 54.19 0 50.44 0 50.44-25 52.84-25 53.44-22.55Q54.59-23.45 55.32-23.95 56.04-24.45 57.64-24.98 59.24-25.5 61.04-25.5L61.04-25.5Q64.49-25.5 66.77-23.38 69.04-21.25 69.04-17.35L69.04-17.35 69.04 0 65.29 0 65.29-16.25Q65.29-22.3 60.24-22.3L60.24-22.3Q56.64-22.3 54.19-19.85ZM81.19 0L77.44 0 77.44-25 81.19-25 81.19 0ZM77.44-35L81.19-35 81.19-30.55 77.44-30.55 77.44-35ZM104.24-3.9L104.24-3.9 104.99-0.95Q100.99 0.25 97.94 0.25L97.94 0.25Q92.59 0.25 89.89-3.25 87.19-6.75 87.19-12.9 87.19-19.05 89.99-22.28 92.79-25.5 98.24-25.5L98.24-25.5Q100.59-25.5 104.84-24.3L104.84-24.3 103.34-21.4Q100.59-22.2 98.39-22.2L98.39-22.2Q94.59-22.2 92.91-19.95 91.24-17.7 91.24-12.85L91.24-12.85Q91.24-3 98.29-3L98.29-3Q101.09-3 104.24-3.9ZM121.99-14.95L121.99-14.95 124.04-14.95Q124.04-19.5 122.89-20.88 121.74-22.25 117.79-22.25 113.84-22.25 111.09-21.2L111.09-21.2 110.39-24.1Q114.59-25.5 119.09-25.5L119.09-25.5Q127.89-25.5 127.89-16.7L127.89-16.7 127.89 0 125.69 0 124.39-2.95Q122.09-1.05 120.41-0.38 118.74 0.3 116.54 0.3L116.54 0.3Q113.04 0.3 111.09-1.78 109.14-3.85 109.14-7.25L109.14-7.25Q109.14-14.95 121.99-14.95ZM124.09-6.55L124.09-11.8 121.84-11.8Q116.74-11.8 114.81-10.8 112.89-9.8 112.89-7.68 112.89-5.55 113.99-4.2 115.09-2.85 116.86-2.85 118.64-2.85 120.26-3.68 121.89-4.5 124.09-6.55L124.09-6.55ZM138.03-5.55L141.78-4.35 136.13 8.6 133.68 7.8 138.03-5.55ZM159.83-1.65L160.73-4.45Q163.98-2.95 166.93-2.95 169.88-2.95 171.4-4.13 172.93-5.3 172.93-7.25 172.93-9.2 171.63-10.28 170.33-11.35 168.45-11.95 166.58-12.55 164.7-13.25 162.83-13.95 161.53-15.35 160.23-16.75 160.23-18.9L160.23-18.9Q160.23-22.05 162.28-23.78 164.33-25.5 167.83-25.5 171.33-25.5 174.33-24.45L174.33-24.45 174.68-24.3 174.03-21.1Q171.03-22.25 168.45-22.25 165.88-22.25 164.93-21.45 163.98-20.65 163.98-18.75L163.98-18.75Q163.98-17.55 165.28-16.7 166.58-15.85 168.45-15.23 170.33-14.6 172.2-13.78 174.08-12.95 175.38-11.3 176.68-9.65 176.68-7.25L176.68-7.25Q176.68-3.75 174.23-1.73 171.78 0.3 167.48 0.3 163.18 0.3 159.83-1.65L159.83-1.65ZM198.93-12.33Q198.93-17.15 197.03-19.7 195.13-22.25 191.48-22.25 187.83-22.25 186.3-19.83 184.78-17.4 184.78-12.4L184.78-12.4Q184.78-2.95 191.73-2.95L191.73-2.95Q195.38-2.95 197.15-5.23 198.93-7.5 198.93-12.33ZM199.83-3.1Q196.98 0.3 191.78 0.3 186.58 0.3 183.8-3.08 181.03-6.45 181.03-12.53 181.03-18.6 183.7-22.05 186.38-25.5 191.55-25.5 196.73-25.5 199.7-22 202.68-18.5 202.68-12.5 202.68-6.5 199.83-3.1ZM206.57-25L210.47-25 210.47-29.8Q210.47-32.85 212.35-34.18 214.22-35.5 216.4-35.5 218.57-35.5 220.62-34.85L220.62-34.85 220.07-32.15Q218.42-32.45 217.62-32.45L217.62-32.45Q214.17-32.45 214.17-29.1L214.17-29.1 214.17-25 219.27-25 219.27-22 214.17-22 214.17 0 210.42 0 210.42-22 206.57-22 206.57-25ZM224.52-5.4L224.52-5.4 224.52-22 221.12-22 221.12-25 224.57-25 224.57-32.15 228.32-32.15 228.32-25 234.42-25 234.42-22 228.27-22 228.27-6.1Q228.27-2.75 231.67-2.75L231.67-2.75Q232.47-2.75 234.12-3.05L234.12-3.05 234.67-0.35Q232.62 0.3 230.45 0.3 228.27 0.3 226.4-1.03 224.52-2.35 224.52-5.4ZM248.82 0L244.52 0 237.22-25 241.12-25 246.67-3.95 251.82-25 255.52-25 261.07-3.75 266.17-25 270.07-25 263.22 0 258.82 0 253.67-19.75 248.82 0ZM285.97-14.95L285.97-14.95 288.02-14.95Q288.02-19.5 286.87-20.88 285.72-22.25 281.77-22.25 277.82-22.25 275.07-21.2L275.07-21.2 274.37-24.1Q278.57-25.5 283.07-25.5L283.07-25.5Q291.87-25.5 291.87-16.7L291.87-16.7 291.87 0 289.67 0 288.37-2.95Q286.07-1.05 284.39-0.38 282.72 0.3 280.52 0.3L280.52 0.3Q277.02 0.3 275.07-1.78 273.12-3.85 273.12-7.25L273.12-7.25Q273.12-14.95 285.97-14.95ZM288.07-6.55L288.07-11.8 285.82-11.8Q280.72-11.8 278.79-10.8 276.87-9.8 276.87-7.68 276.87-5.55 277.97-4.2 279.07-2.85 280.84-2.85 282.62-2.85 284.24-3.68 285.87-4.5 288.07-6.55L288.07-6.55ZM304.71-19.1L304.71-19.1 304.71 0 300.96 0 300.96-25 303.36-25 303.96-22.05Q306.36-23.95 307.96-24.73 309.56-25.5 311.61-25.5L311.61-25.5Q312.61-25.5 313.11-25.4L313.11-25.4 313.81-25.2 313.21-21.75Q312.31-22.05 310.76-22.05L310.76-22.05Q307.76-22.05 304.71-19.1ZM336.86-11.7L336.86-11.7 320.91-11.7Q320.91-6.9 323.19-4.9 325.46-2.9 328.91-2.9L328.91-2.9Q330.66-2.9 331.36-3.08 332.06-3.25 332.69-3.43 333.31-3.6 333.56-3.7L333.56-3.7Q334.81-4.05 335.71-4.35L335.71-4.35 336.31-1.45Q331.31 0.3 328.51 0.3L328.51 0.3Q323.36 0.3 320.26-2.83 317.16-5.95 317.16-12.23 317.16-18.5 320.09-22 323.01-25.5 327.49-25.5 331.96-25.5 334.46-22.6 336.96-19.7 336.96-14.75L336.96-14.75Q336.96-13.4 336.86-11.7ZM321.16-14.55L321.16-14.55 333.36-14.55Q333.36-18.25 332.06-20.25 330.76-22.25 327.54-22.25 324.31-22.25 322.81-20.1 321.31-17.95 321.16-14.55Z" opacity="1" transform="matrix(1,0,0,1,0,0)" fill="#ff851b" class="slogan-text-1" data-fill-palette-color="secondary" id="text-1"></path></svg></g></svg></g></svg></g></svg></g><g><svg viewBox="0 0 93.17466972319986 107.92928796649386" height="107.92928796649386" width="93.17466972319986"><g><svg xmlns="http://www.w3.org/2000/svg" xmlns:xlink="http://www.w3.org/1999/xlink" version="1.1" x="0" y="0" viewBox="9.638 3.247 80.72399999999999 93.507" enable-background="new 0 0 100 100" xml:space="preserve" height="107.92928796649386" width="93.17466972319986" class="icon-icon-0" data-fill-palette-color="accent" id="icon-0"><g fill="#bf6467" data-fill-palette-color="accent"><g fill="#bf6467" data-fill-palette-color="accent"><polygon points="36.703,11.011 9.638,26.636 9.638,38.757 36.703,23.131 63.767,38.757 63.767,26.636   " fill="#bf6467" data-fill-palette-color="accent"></polygon></g><g fill="#bf6467" data-fill-palette-color="accent"><polygon points="63.298,89.092 36.233,73.467 36.233,61.348 63.298,76.973 90.362,61.348 90.362,73.467   " fill="#bf6467" data-fill-palette-color="accent"></polygon></g><g fill="#bf6467" data-fill-palette-color="accent"><polygon points="9.638,42.012 36.703,26.386 47.198,32.446 20.134,48.072 20.134,79.324 9.638,73.264   " fill="#bf6467" data-fill-palette-color="accent"></polygon></g><g fill="#bf6467" data-fill-palette-color="accent"><polygon points="77.083,18.872 50.018,3.247 39.522,9.307 66.586,24.932 66.586,56.184 77.083,50.124   " fill="#bf6467" data-fill-palette-color="accent"></polygon></g><g fill="#bf6467" data-fill-palette-color="accent"><polygon points="23.01,81.127 23.011,49.876 33.507,43.816 33.507,75.068 60.571,90.693 50.075,96.754   " fill="#bf6467" data-fill-palette-color="accent"></polygon></g><g fill="#bf6467" data-fill-palette-color="accent"><polygon points="90.362,58.092 90.362,26.84 79.866,20.78 79.866,52.031 52.802,67.658 63.298,73.719   " fill="#bf6467" data-fill-palette-color="accent"></polygon></g></g></svg></g></svg></g></svg></g><defs></defs></svg><rect width="395.52" height="85.60949126050576" fill="none" stroke="none" visibility="hidden"></rect></g></svg></g></svg>